<svg xmlns="http://www.w3.org/2000/svg" shape-rendering="geometricPrecision" text-rendering="geometricPrecision" image-rendering="optimizeQuality" fill-rule="evenodd" clip-rule="evenodd" viewBox="0 0 493 511.599"><style>path{fill:#000}@media(prefers-color-scheme:dark){path{fill:#fff}}</style><path d="M240.498 0c27.189 0 49.235 22.046 49.235 49.235a49.006 49.006 0 01-6.135 23.809L419.43 203.993a49 49 0 0124.335-6.428c27.189 0 49.235 22.046 49.235 49.235s-22.046 49.235-49.235 49.235c-18.968 0-35.429-10.731-43.652-26.45l-112.421 42.543a49.226 49.226 0 012.041 14.056c0 24.752-18.274 45.239-42.063 48.713v38.754c23.789 3.474 42.063 23.96 42.063 48.713 0 27.189-22.046 49.235-49.235 49.235s-49.235-22.046-49.235-49.235c0-24.885 18.469-45.458 42.444-48.766V374.95c-23.975-3.309-42.444-23.882-42.444-48.766 0-12.182 4.428-23.329 11.759-31.926l-29.14-30.044-87.212 88.651c7.355 8.603 11.8 19.769 11.8 31.973 0 27.189-22.046 49.236-49.235 49.236S0 412.027 0 384.838c0-25.088 18.771-45.796 43.034-48.846l1.769-161.217C19.69 172.533 0 151.435 0 125.74c0-27.189 22.046-49.234 49.235-49.234 19.97 0 37.164 11.892 44.888 28.98l98.152-46.274a49.456 49.456 0 01-1.012-9.977C191.263 22.046 213.309 0 240.498 0zm34.634 84.224c-7.197 7.126-16.581 12.046-27.054 13.665l-.208 38.068c24.681 2.659 43.903 23.56 43.903 48.947 0 3.446-.355 6.809-1.03 10.055l108.032 31.821a49.29 49.29 0 019.548-14.151L275.132 84.224zm-40.963 13.842c-16.118-2.07-29.798-11.936-37.137-25.695l-99.017 46.68a49.48 49.48 0 01-.129 14.281l99.294 32.391c6.405-15.126 20.157-26.385 36.78-29.307l.209-38.35zM76.206 343.647l87.98-89.43-85.991-88.661a49.005 49.005 0 01-19.475 8.503l-1.781 162.147a48.925 48.925 0 0119.267 7.441zm11.977-187.792l85.77 88.434 29.268-29.751a49.012 49.012 0 01-9.918-29.634c0-1.921.114-3.815.328-5.679l-99.82-32.564a49.257 49.257 0 01-5.628 9.194zm124.905 68.507l-29.438 29.924 29.819 30.744a48.995 48.995 0 0127.029-8.081c17.332 0 32.573 8.96 41.345 22.498l113.634-43a49.453 49.453 0 01-.947-9.647c0-2.245.152-4.453.444-6.619l-108.99-32.103c-8.289 15.507-24.636 26.061-43.446 26.061a49.002 49.002 0 01-29.45-9.777zM49.235 347.571c20.582 0 37.267 16.686 37.267 37.267 0 20.582-16.685 37.268-37.267 37.268-20.582 0-37.267-16.686-37.267-37.268 0-20.581 16.685-37.267 37.267-37.267zm191.263 77.525c20.582 0 37.267 16.686 37.267 37.268s-16.685 37.267-37.267 37.267c-20.582 0-37.268-16.685-37.268-37.267 0-20.582 16.686-37.268 37.268-37.268zm0-136.179c20.582 0 37.267 16.685 37.267 37.267 0 20.582-16.685 37.267-37.267 37.267-20.582 0-37.268-16.685-37.268-37.267 0-20.582 16.686-37.267 37.268-37.267zm203.267-79.385c20.581 0 37.267 16.686 37.267 37.268s-16.686 37.267-37.267 37.267c-20.582 0-37.268-16.685-37.268-37.267 0-20.582 16.686-37.268 37.268-37.268zm-201.227-61.895c20.582 0 37.267 16.685 37.267 37.267 0 20.583-16.685 37.268-37.267 37.268-20.582 0-37.267-16.685-37.267-37.268 0-20.582 16.685-37.267 37.267-37.267zM49.235 88.473c20.582 0 37.267 16.685 37.267 37.267 0 20.583-16.685 37.268-37.267 37.268-20.582 0-37.267-16.685-37.267-37.268 0-20.582 16.685-37.267 37.267-37.267zm191.263-76.505c20.582 0 37.267 16.685 37.267 37.267 0 20.582-16.685 37.268-37.267 37.268-20.582 0-37.268-16.686-37.268-37.268s16.686-37.267 37.268-37.267z"/></svg>
